<svg id="Layer_1" data-name="Layer 1" xmlns="http://www.w3.org/2000/svg" xmlns:xlink="http://www.w3.org/1999/xlink" viewBox="0 0 54.64 67.62"><defs><style>.cls-1{fill:none;}.cls-2{clip-path:url(#clip-path);}.cls-3{fill:url(#linear-gradient);}.cls-4{fill:url(#linear-gradient-2);}</style><clipPath id="clip-path" transform="translate(-0.19 -0.19)"><rect class="cls-1" width="55" height="68"/></clipPath><linearGradient id="linear-gradient" x1="26.29" y1="69.81" x2="26.29" y2="43.42" gradientTransform="matrix(1, 0, 0, -1, 0, 70)" gradientUnits="userSpaceOnUse"><stop offset="0" stop-color="#ff16b8"/><stop offset="1" stop-color="#ff16b8" stop-opacity="0.46"/></linearGradient><linearGradient id="linear-gradient-2" x1="27.51" y1="61.52" x2="27.51" y2="2.19" gradientTransform="matrix(1, 0, 0, -1, 0, 70)" gradientUnits="userSpaceOnUse"><stop offset="0" stop-color="#ff16b8"/><stop offset="1" stop-color="#ff16b8"/></linearGradient></defs><g class="cls-2"><path class="cls-3" d="M49.45.19H20.92a22.19,22.19,0,0,0-9.19,1.93C9.07,3.33,5.94,5.42,4.5,8.5,1.2,15.63,3,26.58,19.7,26.58c0,0-4.55-2-4.42-5.85A5.44,5.44,0,0,1,17,17.05a5.73,5.73,0,0,1,4.07-1.64c.84,0,.83,0,2.14,0s10.88,0,10.88,0a16.49,16.49,0,0,0,8.07-2C45.66,11.4,49.35,7.57,49.45.19Z" transform="translate(-0.19 -0.19)"/><path class="cls-4" d="M4.55,8.48A21.68,21.68,0,0,0,.49,24.7,20.12,20.12,0,0,0,11.56,39.14a21.62,21.62,0,0,0,9.33,2.47H34.11a5.82,5.82,0,0,1,5.83,6.16,5.39,5.39,0,0,1-3.88,5c-3.89,1.16-35.77,0-35.77,0s0,9.34,8.08,13.49a14.87,14.87,0,0,0,6.78,1.54H33.36A23.12,23.12,0,0,0,44.53,65a19.06,19.06,0,0,0,9.88-13.69A23,23,0,0,0,52,35.91c-2.38-4.24-6.7-8.74-14.39-8.94l-17.88-.38S-1.28,27.35,4.55,8.48Z" transform="translate(-0.19 -0.19)"/></g></svg>